<?xml version="1.0" standalone="no"?>
<!DOCTYPE svg PUBLIC "-//W3C//DTD SVG 20010904//EN"
 "http://www.w3.org/TR/2001/REC-SVG-20010904/DTD/svg10.dtd">
<svg version="1.0" xmlns="http://www.w3.org/2000/svg"
 width="617.000000pt" height="613.000000pt" viewBox="0 0 617.000000 613.000000"
 preserveAspectRatio="xMidYMid meet">
<metadata>
Created by potrace 1.16, written by Peter Selinger 2001-2019
</metadata>
<g transform="translate(0.000000,613.000000) scale(0.100000,-0.100000)"
fill="#000000" stroke="none">
<path d="M2 4313 c1 -1341 4 -1750 11 -1558 13 351 12 233 4 1878 -6 1120 -5
1472 4 1483 9 11 8 14 -5 14 -15 0 -16 -147 -14 -1817z"/>
<path d="M6138 4794 c2 -1323 0 -1409 -29 -1363 -5 8 -9 42 -9 75 0 34 -7 78
-15 97 -8 20 -15 58 -15 84 0 26 -7 57 -15 67 -8 11 -15 39 -15 63 0 24 -4 43
-10 43 -5 0 -10 17 -10 39 0 22 -6 44 -15 51 -8 7 -15 25 -15 41 0 15 -4 31
-10 34 -5 3 -10 14 -10 23 0 9 -7 30 -15 46 -8 15 -15 39 -15 52 0 14 -7 27
-15 30 -8 4 -15 18 -15 33 0 14 -7 35 -15 45 -8 11 -15 28 -15 38 0 10 -4 18
-10 18 -5 0 -10 9 -10 21 0 11 -7 27 -15 35 -8 9 -15 24 -15 35 0 10 -4 19
-10 19 -5 0 -10 11 -10 24 0 13 -7 26 -15 30 -8 3 -15 14 -15 25 0 11 -4 22
-9 25 -5 3 -18 24 -29 45 -32 61 -46 84 -59 99 -7 7 -13 20 -13 28 0 8 -4 14
-10 14 -5 0 -10 6 -10 14 0 8 -3 16 -7 18 -10 4 -73 96 -73 106 0 4 -18 26
-40 47 -22 21 -40 44 -40 50 0 6 -17 29 -37 50 -21 22 -53 60 -71 84 -74 96
-193 213 -310 305 -15 11 -42 36 -60 54 -19 17 -38 32 -43 32 -4 0 -22 14 -39
30 -17 17 -35 30 -40 30 -6 0 -10 5 -10 10 0 6 -7 10 -15 10 -8 0 -28 14 -45
30 -17 17 -35 30 -41 30 -6 0 -17 6 -24 13 -35 30 -45 37 -59 37 -8 0 -19 6
-23 13 -4 7 -25 21 -45 32 -21 11 -38 23 -38 27 0 5 -8 8 -19 8 -10 0 -24 7
-31 15 -7 8 -21 15 -31 15 -11 0 -19 5 -19 10 0 6 -8 10 -19 10 -10 0 -24 7
-31 15 -7 8 -17 15 -24 15 -10 0 -74 28 -149 66 -16 8 -35 14 -43 14 -8 0 -22
4 -32 9 -47 26 -87 41 -107 41 -13 0 -28 7 -35 15 -7 8 -25 15 -41 15 -15 0
-30 4 -33 9 -3 5 -26 12 -51 15 -24 4 -47 11 -50 17 -4 5 -25 9 -48 9 -23 0
-51 7 -61 15 -11 8 -41 15 -67 15 -26 0 -50 4 -53 9 -3 4 -42 11 -86 14 -54 3
-87 11 -99 21 -15 14 -60 16 -352 16 -272 -1 -341 -4 -374 -16 -22 -8 -75 -18
-118 -21 -43 -3 -80 -10 -83 -14 -3 -5 -27 -9 -53 -9 -26 0 -56 -7 -67 -15
-10 -8 -37 -15 -59 -15 -22 0 -49 -7 -59 -15 -11 -8 -32 -15 -47 -15 -15 0
-31 -4 -34 -10 -3 -5 -19 -10 -34 -10 -15 0 -31 -4 -36 -9 -6 -5 -43 -18 -82
-31 -40 -12 -75 -26 -78 -31 -4 -5 -15 -9 -25 -9 -16 0 -52 -15 -100 -42 -8
-4 -22 -11 -30 -14 -72 -28 -135 -58 -138 -66 -2 -5 -12 -8 -22 -8 -9 0 -23
-7 -30 -15 -7 -8 -21 -15 -31 -15 -11 0 -19 -3 -19 -8 0 -4 -17 -16 -37 -27
-21 -11 -42 -25 -46 -32 -4 -7 -15 -13 -23 -13 -9 0 -30 -11 -48 -25 -18 -14
-38 -25 -44 -25 -7 0 -12 -4 -12 -9 0 -5 -17 -20 -37 -32 -21 -13 -39 -27 -41
-31 -2 -4 -8 -8 -12 -8 -5 0 -23 -13 -40 -30 -17 -16 -35 -30 -39 -30 -5 0
-24 -15 -43 -32 -18 -18 -45 -43 -60 -54 -110 -86 -205 -180 -296 -292 -17
-20 -51 -59 -76 -87 -25 -27 -46 -54 -46 -60 0 -6 -18 -29 -40 -50 -22 -21
-40 -45 -40 -52 0 -6 -11 -24 -25 -39 -14 -15 -25 -32 -25 -38 0 -6 -11 -23
-25 -38 -14 -15 -25 -32 -25 -37 0 -5 -6 -16 -12 -23 -12 -13 -34 -50 -65
-110 -8 -15 -18 -30 -24 -33 -5 -4 -9 -15 -9 -26 0 -11 -7 -22 -15 -25 -8 -4
-15 -17 -15 -30 0 -13 -4 -24 -10 -24 -5 0 -10 -8 -10 -19 0 -10 -7 -24 -15
-31 -8 -7 -15 -20 -15 -30 0 -10 -7 -23 -15 -30 -8 -7 -15 -23 -15 -36 0 -12
-4 -26 -10 -29 -5 -3 -10 -17 -10 -31 0 -14 -7 -27 -15 -30 -8 -4 -15 -19 -15
-34 0 -16 -4 -31 -9 -34 -5 -3 -12 -22 -15 -41 -4 -19 -11 -35 -16 -35 -6 0
-10 -15 -10 -33 0 -18 -7 -42 -15 -53 -8 -10 -15 -36 -15 -56 0 -20 -4 -39 -9
-42 -4 -3 -11 -28 -15 -55 -4 -28 -11 -53 -16 -56 -6 -3 -10 -26 -10 -49 0
-24 -7 -60 -15 -79 -8 -20 -15 -65 -15 -101 0 -36 -4 -67 -9 -70 -9 -6 -24
-243 -24 -371 1 -165 32 -490 52 -538 6 -16 11 -49 11 -75 0 -26 7 -56 15 -66
8 -11 15 -31 15 -44 0 -24 25 -111 41 -144 5 -10 9 -29 9 -44 0 -14 7 -32 15
-40 8 -9 15 -26 15 -40 0 -24 2 -30 33 -92 9 -19 17 -41 17 -50 0 -9 7 -26 15
-36 8 -11 15 -30 15 -43 0 -13 5 -23 10 -23 6 0 10 -11 10 -24 0 -13 7 -26 15
-30 8 -3 15 -16 15 -30 0 -13 7 -26 15 -30 8 -3 15 -15 15 -26 0 -11 5 -20 10
-20 6 0 10 -11 10 -25 0 -16 6 -25 15 -25 9 0 15 -9 15 -25 0 -14 4 -25 8 -25
5 0 17 -17 28 -37 10 -21 25 -42 32 -46 6 -4 12 -15 12 -23 0 -8 11 -27 25
-42 14 -15 25 -31 25 -37 0 -5 14 -25 30 -44 17 -18 30 -39 30 -46 0 -7 10
-23 23 -36 33 -35 77 -96 77 -107 0 -6 13 -16 29 -23 17 -7 34 -24 40 -36 17
-38 195 -223 276 -288 66 -53 75 -62 75 -74 0 -6 7 -11 15 -11 8 0 15 -4 15
-9 0 -5 8 -12 19 -16 10 -3 30 -16 43 -28 46 -42 97 -77 112 -77 9 0 16 -6 16
-14 0 -8 16 -20 35 -26 19 -6 35 -18 35 -26 0 -8 10 -14 21 -14 12 0 33 -12
46 -26 13 -14 30 -23 38 -20 8 3 41 -15 73 -39 33 -25 66 -45 73 -45 8 0 34
-14 59 -30 25 -16 51 -30 58 -30 7 0 30 -11 50 -25 20 -14 47 -25 59 -25 12 0
25 -5 28 -10 3 -6 19 -10 36 -10 17 0 28 -5 27 -12 -2 -6 13 -15 32 -19 19 -3
48 -11 64 -18 16 -6 38 -9 49 -5 15 5 19 3 14 -9 -4 -11 4 -16 31 -20 82 -12
142 -31 142 -45 0 -11 9 -13 38 -10 47 7 156 -13 199 -35 23 -12 58 -17 122
-17 62 0 91 -4 94 -12 3 -7 6 -8 6 -2 1 7 26 7 84 0 142 -18 455 -11 489 11 7
4 47 8 88 9 100 2 102 2 95 14 -3 6 1 10 9 10 9 0 16 -7 16 -15 0 -20 14 -19
35 1 21 22 75 33 104 22 14 -5 28 -4 35 1 6 5 38 17 71 26 33 10 66 22 73 27
8 7 17 7 26 -1 11 -9 16 -9 23 1 11 18 72 38 116 38 20 0 37 4 37 8 0 11 49
34 60 27 4 -3 13 2 20 10 7 8 25 15 41 15 15 0 31 5 34 10 3 6 15 10 26 10 11
0 27 7 35 15 9 8 26 15 40 15 24 0 33 15 13 22 -6 2 17 10 50 17 47 10 59 16
51 26 -14 16 7 25 42 18 19 -4 29 0 37 15 6 11 24 23 40 27 16 3 35 13 42 21
6 8 20 14 30 14 11 0 19 5 19 10 0 6 4 10 10 10 14 0 50 32 50 45 0 5 28 23
61 39 34 16 63 35 66 43 3 7 14 13 24 13 10 0 19 5 19 10 0 6 7 10 15 10 8 0
15 3 15 8 0 4 17 18 38 32 20 14 45 35 55 48 10 12 23 22 28 22 14 0 39 26 39
39 0 6 4 11 10 11 13 0 55 35 107 90 23 25 56 60 73 78 17 17 35 32 40 32 5 0
15 10 21 23 12 21 32 45 92 108 15 17 27 33 27 38 0 4 17 26 38 49 44 49 61
71 68 94 4 10 9 18 13 18 4 0 15 16 25 35 11 19 23 35 27 35 4 0 17 20 28 45
11 25 25 45 30 45 6 0 11 7 11 17 0 9 10 30 23 47 13 17 26 39 30 49 3 9 11
17 17 17 5 0 10 11 10 25 0 14 5 25 10 25 6 0 10 11 10 25 0 14 7 28 15 31 8
4 15 14 15 24 0 10 7 23 15 30 8 7 15 21 15 31 0 11 5 19 10 19 6 0 10 10 10
23 0 13 7 32 15 43 8 10 15 27 15 37 0 9 4 25 10 35 18 34 39 87 45 119 4 18
11 33 16 33 5 0 9 14 9 30 0 17 4 38 9 48 17 31 41 120 41 150 0 16 7 35 15
42 10 8 15 31 15 69 1 31 7 67 15 81 8 14 14 51 15 83 0 43 5 66 20 84 16 21
20 41 20 102 0 84 8 124 21 115 5 -3 9 668 9 1595 0 1518 -1 1601 -17 1601
-17 0 -18 -69 -15 -1336z m-4025 999 c9 -8 -32 -53 -49 -53 -6 0 -25 -7 -40
-15 -16 -8 -39 -15 -51 -15 -12 0 -25 -4 -28 -10 -3 -5 -15 -10 -26 -10 -10 0
-19 -4 -19 -8 0 -5 -22 -18 -49 -30 -27 -12 -52 -26 -56 -32 -3 -5 -13 -10
-21 -10 -9 0 -22 -7 -31 -16 -9 -8 -22 -13 -30 -10 -7 3 -16 -1 -19 -9 -4 -8
-15 -15 -25 -15 -11 0 -22 -7 -25 -15 -4 -8 -15 -15 -25 -15 -10 0 -32 -13
-48 -29 -16 -16 -43 -35 -60 -42 -17 -8 -31 -17 -31 -21 0 -4 -17 -15 -37 -24
-21 -10 -42 -24 -46 -31 -4 -7 -17 -13 -27 -13 -11 0 -20 -6 -20 -14 0 -7 -17
-26 -37 -42 -21 -15 -42 -34 -46 -41 -11 -18 -57 -17 -57 2 0 16 34 55 48 55
5 0 28 18 52 40 24 22 50 40 58 40 8 0 20 8 27 17 11 14 16 15 28 4 13 -10 16
-8 19 16 2 15 12 32 23 38 11 5 35 20 52 33 17 12 38 22 46 22 8 0 17 7 21 15
3 8 11 15 19 15 25 0 96 40 107 60 6 11 19 20 30 20 10 0 20 5 22 11 2 6 20
11 40 11 22 0 39 6 42 14 3 8 14 14 24 14 11 0 25 7 32 15 7 9 19 14 27 11 8
-3 16 1 19 8 3 8 16 17 30 20 13 4 24 11 24 16 0 6 14 10 30 10 17 0 30 5 30
10 0 11 43 14 53 3z m957 -46 c17 -8 26 -23 28 -42 2 -17 7 -34 12 -40 4 -5
11 -29 15 -52 4 -24 11 -45 16 -49 5 -3 9 -17 10 -32 0 -16 3 -21 6 -12 3 8
12 19 19 23 8 4 14 21 14 37 0 16 4 31 9 34 5 4 12 24 16 46 4 22 11 40 15 40
5 0 10 10 12 23 3 21 8 22 87 22 l84 0 -1 -197 c0 -109 -1 -209 -1 -223 -1
-24 -4 -25 -56 -25 -69 0 -73 8 -70 119 2 47 1 73 -2 56 -2 -16 -11 -34 -19
-38 -8 -4 -14 -20 -14 -35 0 -15 -7 -36 -15 -46 -8 -11 -15 -28 -15 -38 0 -15
-8 -18 -46 -18 -60 0 -84 14 -84 48 0 16 -7 37 -15 48 -8 10 -15 31 -15 47 0
15 -5 27 -10 27 -6 0 -10 -29 -8 -73 1 -40 -2 -79 -6 -85 -9 -16 -89 -15 -104
0 -9 9 -12 73 -12 224 0 213 0 213 23 217 46 9 103 6 127 -6z m-264 -14 c3
-10 10 -26 15 -35 5 -10 9 -49 9 -87 0 -49 4 -72 15 -81 10 -9 15 -32 15 -75
0 -37 6 -75 16 -95 23 -45 10 -61 -50 -65 -71 -4 -86 15 -86 108 0 50 -3 67
-10 57 -5 -8 -10 -33 -10 -55 0 -23 -4 -45 -9 -50 -5 -6 -11 -26 -13 -45 -3
-33 -5 -35 -48 -42 -57 -8 -79 -2 -91 25 -5 12 -13 29 -18 37 -5 8 -17 32 -27
52 -18 37 -34 42 -34 10 0 -9 7 -30 16 -47 8 -16 16 -45 17 -64 2 -33 -1 -36
-33 -42 -19 -4 -45 -10 -57 -14 -19 -6 -23 -4 -23 16 -1 13 -7 35 -15 49 -8
14 -14 53 -15 91 0 38 -5 70 -12 77 -7 7 -13 42 -14 79 -1 40 -6 69 -13 71
-19 6 -14 62 7 63 45 3 73 9 91 18 32 17 50 13 57 -14 3 -14 9 -25 13 -25 4 0
22 -30 41 -67 19 -38 38 -69 42 -71 5 -2 8 -12 8 -23 0 -10 5 -19 10 -19 6 0
10 15 10 34 0 19 5 38 10 41 6 3 10 36 10 73 0 87 16 112 70 112 21 0 42 5 45
10 10 17 55 11 61 -7z m834 -17 c6 -8 24 -16 38 -18 19 -2 28 -10 30 -25 2
-13 8 -23 13 -23 5 0 9 -18 9 -40 0 -33 3 -40 19 -40 11 0 21 3 23 8 6 14 86
72 100 72 8 0 23 -7 34 -15 10 -8 27 -15 36 -15 25 0 33 -21 13 -36 -9 -7 -32
-27 -51 -43 -18 -17 -37 -31 -41 -31 -5 0 -29 -18 -55 -41 -39 -33 -48 -47
-48 -74 0 -18 -7 -38 -15 -45 -8 -7 -15 -29 -15 -49 0 -41 -38 -89 -56 -72 -5
5 -25 11 -44 13 -30 3 -35 7 -38 31 -2 15 1 27 7 27 6 0 11 15 11 33 0 18 7
43 16 55 19 27 22 138 5 155 -6 6 -11 23 -11 37 0 14 -6 34 -14 45 -16 24 -29
89 -19 98 11 12 40 8 53 -7z m938 -146 c15 0 52 -36 52 -50 0 -5 8 -10 18 -10
24 0 71 -23 98 -48 11 -11 30 -23 42 -26 12 -4 22 -12 22 -17 0 -5 5 -9 10 -9
15 0 50 -38 50 -55 0 -9 9 -15 22 -15 12 0 19 -2 16 -5 -13 -13 -89 9 -115 34
-15 15 -36 30 -45 34 -10 3 -18 16 -18 27 0 15 -7 20 -25 20 -14 0 -28 7 -31
15 -4 8 -12 15 -19 15 -19 0 -115 51 -115 61 0 5 -8 9 -19 9 -27 0 -40 21 -30
48 l9 23 33 -25 c19 -14 39 -26 45 -26z m-2405 -40 c7 -5 27 -21 45 -36 17
-14 32 -32 32 -39 0 -7 7 -15 15 -19 8 -3 15 -17 15 -31 0 -14 5 -25 10 -25 6
0 10 -33 10 -79 0 -61 -3 -80 -15 -85 -8 -3 -15 -12 -15 -21 0 -16 -34 -55
-49 -55 -5 0 -14 -6 -20 -14 -14 -17 -103 -28 -153 -18 -58 11 -142 97 -154
157 -3 19 -10 38 -15 41 -12 7 -11 71 1 79 6 3 10 17 10 29 0 26 52 89 90 110
29 16 175 21 193 6z m2227 -105 c7 -8 18 -15 25 -15 7 0 15 -7 19 -15 3 -8 14
-15 24 -15 11 0 31 -11 46 -25 15 -14 32 -25 37 -25 6 0 25 -11 43 -25 18 -14
38 -25 43 -25 6 0 18 -12 28 -26 16 -24 15 -26 -7 -48 -13 -12 -28 -31 -34
-42 -7 -13 -27 -21 -59 -26 -26 -4 -53 -12 -58 -17 -6 -6 -25 -11 -43 -11 -17
0 -45 -7 -60 -15 -16 -8 -45 -15 -63 -15 -42 0 -35 -8 39 -46 30 -15 57 -30
60 -33 3 -4 14 -11 24 -17 41 -22 41 -39 2 -79 -31 -31 -39 -35 -53 -24 -16
14 -39 28 -90 54 -18 9 -37 23 -44 31 -6 8 -16 14 -22 14 -5 0 -25 11 -43 25
-18 14 -39 25 -46 25 -15 0 -48 35 -48 50 0 6 5 10 10 10 6 0 10 6 10 14 0 29
41 66 74 66 18 0 41 7 52 15 10 8 38 15 61 15 23 0 45 5 48 10 3 6 26 10 50
10 24 0 46 4 49 8 4 7 -40 40 -131 96 -44 27 -55 49 -28 60 8 3 15 14 15 24 0
10 3 22 7 25 12 12 50 7 63 -8z m-2661 -76 c17 -17 31 -36 31 -42 0 -7 14 -27
30 -46 17 -18 30 -38 30 -43 0 -5 11 -21 25 -36 14 -15 25 -31 25 -37 0 -6 10
-21 23 -35 59 -65 73 -121 32 -128 -11 -2 -28 -11 -37 -19 -23 -21 -43 -11
-63 31 -9 19 -23 37 -31 40 -8 3 -14 12 -14 21 0 8 -4 15 -10 15 -15 0 -11
-42 5 -64 8 -11 15 -32 15 -47 0 -15 5 -31 11 -34 22 -14 -60 -75 -99 -75 -9
0 -27 11 -41 24 -40 36 -78 58 -85 48 -3 -5 1 -15 9 -22 8 -7 15 -18 15 -24 0
-7 11 -23 25 -36 14 -13 25 -28 25 -32 0 -21 -75 -72 -94 -65 -14 6 -116 152
-116 167 0 5 -6 13 -14 17 -7 4 -26 28 -41 53 -15 25 -34 49 -41 53 -8 4 -14
14 -14 21 0 8 -7 16 -15 20 -33 12 -12 44 56 82 19 10 38 25 44 31 8 10 18 5
44 -17 18 -17 38 -30 42 -30 8 0 21 -10 93 -72 17 -15 37 -28 44 -28 17 0 15
25 -3 40 -8 7 -15 29 -15 49 0 20 -7 45 -15 55 -8 11 -15 32 -15 47 0 15 -4
31 -10 34 -19 12 -10 31 23 50 17 10 43 29 56 42 30 29 33 29 70 -8z m3158
-294 c68 -58 86 -96 81 -167 -3 -35 -10 -64 -16 -66 -7 -2 -12 -10 -12 -19 0
-21 -90 -113 -111 -113 -9 0 -22 -7 -29 -15 -15 -18 -110 -21 -143 -4 -12 6
-46 34 -74 62 l-53 51 0 81 c0 74 2 82 30 113 16 18 30 36 32 40 2 4 21 22 43
40 38 31 43 32 125 32 84 0 87 -1 127 -35z m505 -216 c26 -28 48 -58 48 -65 0
-8 7 -22 16 -31 26 -30 64 -93 64 -108 0 -7 11 -22 23 -32 33 -26 81 -113 69
-125 -15 -15 -46 -5 -50 15 -2 10 -14 29 -28 44 -13 14 -24 34 -24 43 0 10 -7
20 -15 24 -8 3 -15 14 -15 24 0 11 -7 25 -15 32 -9 7 -14 19 -11 27 4 8 -4 17
-19 23 -14 5 -29 18 -32 27 -4 10 -17 27 -30 39 -13 12 -23 29 -23 39 0 10 -7
23 -17 30 -15 11 -13 45 4 45 4 0 29 -23 55 -51z m-214 -78 c37 -49 40 -73 12
-108 -11 -14 -20 -32 -20 -39 0 -13 -9 -34 -32 -74 -4 -8 -11 -22 -14 -30 -3
-8 -11 -25 -17 -37 -17 -37 -3 -36 37 2 21 19 43 35 51 35 7 0 15 6 18 13 8
21 70 47 95 40 12 -3 25 -16 28 -29 3 -13 10 -24 15 -24 5 0 9 -8 9 -17 0 -17
-80 -79 -121 -95 -11 -4 -19 -12 -19 -17 0 -5 -9 -12 -19 -16 -11 -3 -39 -21
-63 -40 -23 -19 -47 -35 -51 -35 -4 0 -20 -11 -35 -25 -37 -34 -54 -32 -96 16
-39 45 -45 69 -21 89 8 7 15 20 15 30 0 9 11 37 25 61 14 24 27 51 31 59 3 8
10 23 15 32 18 35 4 51 -23 26 -13 -12 -118 -86 -145 -102 -8 -4 -27 7 -49 29
-33 34 -35 39 -24 61 8 13 19 24 27 24 7 0 13 5 13 10 0 6 8 14 18 17 22 8
128 81 162 111 13 12 30 22 36 22 6 0 19 10 30 21 20 23 53 39 69 35 6 -1 25
-22 43 -45z m-4150 -31 c25 -34 29 -88 7 -96 -8 -4 -15 -10 -15 -15 0 -6 -18
-34 -40 -63 -22 -29 -40 -56 -40 -59 0 -13 -40 -47 -54 -47 -12 0 -45 15 -85
37 -6 4 27 67 46 88 10 11 29 37 42 58 12 20 27 37 32 37 5 0 9 6 9 14 0 16
53 76 67 76 5 0 19 -13 31 -30z m162 -167 c0 -7 -9 -21 -20 -30 -11 -10 -20
-22 -20 -28 0 -5 -16 -28 -35 -50 -19 -22 -35 -43 -35 -47 0 -3 -12 -20 -26
-37 l-25 -31 -39 20 c-51 26 -56 45 -23 92 15 21 33 46 38 56 6 9 15 21 20 27
6 6 26 32 45 57 l35 46 42 -31 c24 -17 43 -36 43 -44z m124 -38 c28 -26 35
-69 11 -79 -8 -3 -29 -28 -46 -56 -17 -27 -35 -50 -40 -50 -5 0 -9 -6 -9 -12
0 -7 -15 -30 -33 -52 l-33 -39 -42 27 c-48 30 -51 44 -18 83 37 44 116 162
116 173 0 10 34 28 56 29 6 1 23 -10 38 -24z m-746 -73 c2 -18 -1 -32 -7 -32
-6 0 -11 -8 -11 -17 -1 -21 -33 -63 -49 -63 -6 0 -11 -11 -11 -25 0 -14 -6
-28 -14 -31 -8 -3 -12 -13 -9 -24 3 -12 -2 -20 -14 -24 -15 -5 -18 -14 -15
-46 2 -22 0 -46 -6 -53 -5 -6 -12 -24 -16 -39 -6 -28 -20 -34 -44 -19 -11 6
-11 17 -2 50 6 22 15 41 20 41 6 0 10 11 10 24 0 13 7 29 15 36 8 7 15 21 15
31 0 11 5 19 10 19 6 0 10 8 10 19 0 10 7 24 15 31 8 7 15 25 15 41 0 16 4 29
9 29 5 0 13 10 17 23 11 35 36 68 48 64 6 -2 12 -18 14 -35z m222 -57 c7 -8
19 -15 26 -15 8 0 31 -10 52 -23 20 -13 44 -26 52 -30 8 -4 22 -11 30 -16 8
-5 33 -17 55 -27 22 -11 42 -22 43 -26 2 -5 7 -8 12 -8 17 0 90 -54 90 -67 0
-7 -4 -13 -10 -13 -5 0 -10 -6 -10 -13 0 -8 -9 -22 -20 -32 -18 -16 -21 -17
-54 -1 -19 9 -38 21 -41 26 -3 6 -13 10 -22 10 -9 0 -24 7 -34 16 -26 23 -54
11 -39 -16 9 -17 7 -28 -10 -57 -20 -33 -20 -37 -4 -54 9 -11 28 -19 41 -19
12 0 23 -4 23 -10 0 -5 9 -10 20 -10 44 0 48 -66 6 -102 -26 -22 -40 -22 -56
-3 -7 8 -21 15 -30 15 -10 0 -20 4 -22 9 -1 5 -28 20 -58 35 -56 26 -241 124
-247 130 -7 7 40 88 55 93 8 4 22 2 31 -4 45 -28 113 -63 121 -63 6 0 10 6 10
14 0 18 32 76 43 76 4 0 7 7 7 15 0 8 -5 15 -10 15 -6 0 -27 11 -48 23 -20 13
-49 27 -64 30 -25 7 -26 8 -15 44 10 34 41 72 58 73 4 0 12 -7 19 -15z m4655
-38 c21 -23 32 -43 60 -112 22 -53 45 -106 56 -127 17 -34 10 -39 -52 -36 -43
2 -64 8 -69 18 -43 85 -60 125 -60 140 0 10 -7 20 -15 24 -8 3 -15 13 -15 22
0 10 -7 25 -16 35 -15 16 -13 19 28 37 55 26 59 26 83 -1z m-137 -89 c2 -14
10 -32 18 -38 8 -7 14 -23 14 -35 0 -13 3 -25 8 -27 16 -7 43 -77 40 -104 -3
-25 -9 -30 -45 -38 -47 -10 -73 3 -73 35 0 10 -4 21 -10 24 -5 3 -10 14 -10
24 0 10 -7 24 -15 31 -8 7 -15 23 -15 37 0 13 -6 26 -14 29 -8 3 -17 17 -21
32 -9 37 26 63 80 60 35 -3 40 -6 43 -30z m-180 -36 c16 -11 52 -81 52 -103 0
-9 7 -19 15 -23 8 -3 15 -14 15 -25 0 -11 5 -23 10 -26 6 -3 10 -15 10 -26 0
-11 8 -31 17 -45 14 -22 14 -27 2 -35 -8 -5 -22 -9 -31 -9 -9 0 -20 -4 -23
-10 -11 -18 -45 -10 -55 13 -6 12 -14 29 -18 37 -23 40 -32 61 -32 74 0 7 -7
19 -15 26 -8 7 -15 20 -15 30 0 10 -7 23 -16 30 -18 16 -15 60 6 70 8 4 24 12
35 18 25 13 27 14 43 4z m-2158 -27 c7 -8 17 -15 22 -15 10 0 38 -25 38 -34 0
-14 43 -47 54 -43 7 3 20 -3 29 -14 9 -10 26 -19 37 -19 11 0 20 -4 20 -10 0
-5 9 -10 20 -10 11 0 23 -7 26 -15 4 -8 12 -15 20 -15 8 0 14 -10 14 -25 0
-14 5 -25 10 -25 6 0 10 -29 10 -66 0 -56 -3 -69 -22 -85 -28 -22 -71 -24 -88
-4 -7 8 -18 15 -26 15 -16 0 -84 63 -84 79 0 20 -17 12 -24 -11 -6 -22 -9 -21
-45 21 -37 41 -61 48 -61 15 0 -8 -9 -23 -20 -34 -11 -11 -20 -31 -20 -44 0
-29 -44 -81 -59 -71 -6 3 -11 18 -11 32 0 37 -34 79 -85 104 -81 41 -214 10
-223 -51 -4 -23 26 -90 40 -90 5 0 8 -6 8 -14 0 -8 6 -17 13 -20 10 -5 10 -7
0 -12 -7 -3 -13 -21 -13 -40 0 -26 -9 -44 -37 -75 -47 -50 -99 -83 -119 -75
-19 7 -9 26 15 26 22 0 111 85 111 105 0 22 -59 77 -78 73 -12 -2 -18 -16 -20
-46 -3 -42 -29 -82 -52 -82 -6 0 -21 7 -35 16 -22 14 -23 21 -24 114 0 74 4
101 14 110 8 7 15 19 15 27 0 21 111 133 131 133 9 0 22 7 29 15 8 9 30 15 60
15 58 0 82 20 56 48 -23 26 -20 45 11 81 l27 31 152 0 c123 0 154 -3 164 -15z
m2636 -246 c13 -12 24 -29 24 -36 0 -8 7 -21 15 -29 8 -9 15 -28 15 -44 0 -16
5 -32 10 -35 6 -3 10 -21 10 -39 0 -18 7 -41 15 -52 8 -10 15 -27 15 -37 0
-22 -27 -34 -43 -18 -6 6 -23 11 -37 11 -42 0 -70 26 -70 65 0 19 -4 37 -10
40 -5 3 -10 22 -10 40 0 24 -6 38 -19 45 -42 22 -70 -22 -36 -56 8 -9 15 -29
15 -45 0 -16 5 -29 10 -29 16 0 12 -76 -5 -90 -8 -7 -15 -18 -15 -24 0 -20
-73 -46 -132 -47 -60 -2 -107 21 -108 52 0 9 -7 22 -15 29 -9 7 -15 29 -15 52
0 25 -5 41 -15 44 -9 4 -15 19 -15 41 0 20 -6 41 -14 47 -19 15 -3 56 21 56
10 0 27 7 37 15 29 22 46 18 46 -8 0 -13 7 -32 15 -43 8 -10 15 -35 15 -54 0
-19 7 -44 15 -54 8 -11 15 -30 15 -43 0 -16 6 -23 20 -23 17 0 20 7 20 49 0
31 -6 55 -15 65 -9 8 -15 33 -15 60 0 38 5 51 35 80 40 40 59 46 138 41 44 -2
65 -9 83 -26z m-4983 -14 c38 -36 40 -57 8 -81 -19 -15 -7 -44 19 -44 11 0 20
-4 20 -10 0 -5 15 -10 34 -10 18 0 39 -7 46 -15 7 -8 25 -15 41 -15 16 0 37
-4 47 -9 9 -6 34 -13 54 -16 44 -7 63 -32 48 -67 -20 -48 -34 -58 -76 -51 -21
3 -45 10 -52 16 -7 5 -27 11 -44 13 -18 2 -37 9 -42 14 -6 6 -23 10 -38 10
-16 0 -39 7 -53 16 -37 24 -65 4 -65 -46 0 -34 -4 -41 -25 -46 -34 -8 -95 30
-95 60 0 12 7 31 15 42 8 10 15 32 15 47 0 15 6 38 14 50 8 12 14 35 14 52 0
16 5 31 11 33 6 2 11 16 11 32 0 70 35 79 93 25z m2442 -115 c3 -5 18 -10 33
-10 29 0 62 -30 62 -55 0 -7 5 -17 11 -20 16 -10 30 -55 24 -76 -5 -16 -17
-19 -77 -19 -39 0 -68 -3 -64 -7 4 -5 35 -8 69 -8 54 0 62 -2 65 -20 1 -11 8
-37 14 -57 15 -52 0 -69 -55 -62 -23 3 -53 1 -67 -4 -25 -9 -25 -9 9 -17 46
-10 99 -43 106 -65 3 -11 1 -29 -5 -41 -9 -15 -9 -24 -1 -32 6 -6 11 -22 11
-35 0 -14 8 -30 17 -37 14 -10 15 -19 7 -46 -9 -30 -14 -34 -49 -37 -36 -3
-77 -22 -47 -22 17 0 15 -65 -3 -80 -8 -7 -15 -23 -15 -36 0 -19 -5 -24 -24
-24 -34 0 -40 -16 -16 -40 26 -26 25 -37 -2 -66 -19 -20 -33 -24 -81 -24 -62
0 -108 22 -156 74 -32 34 -44 33 -36 -5 5 -24 2 -35 -14 -50 -12 -11 -28 -31
-37 -44 -12 -18 -25 -25 -50 -25 -18 0 -36 5 -39 10 -3 6 -16 10 -27 10 -38 0
-59 48 -39 88 25 50 41 96 41 120 1 35 22 62 48 62 29 0 32 9 25 83 l-6 65
-27 -10 c-22 -7 -33 -6 -49 9 -12 9 -21 22 -21 27 0 5 -12 25 -26 44 -26 33
-26 35 -10 62 9 16 16 38 16 50 0 13 5 20 13 17 6 -2 12 -20 12 -40 0 -32 23
-65 45 -67 9 0 5 184 -4 198 -10 17 -53 15 -60 -3 -6 -16 -36 -21 -36 -6 0 12
57 41 80 41 20 0 74 -48 84 -75 l8 -20 8 20 c11 27 46 55 70 55 10 0 22 5 25
10 4 6 -9 10 -32 10 -22 1 -47 9 -61 20 -19 16 -23 27 -20 67 l3 48 74 21 c52
15 84 30 105 52 28 28 37 31 98 31 37 1 70 -3 73 -9z m1312 -827 c71 -35 93
-78 93 -176 0 -49 -5 -80 -15 -93 -8 -10 -15 -31 -15 -45 0 -15 -7 -32 -15
-39 -8 -7 -15 -23 -15 -36 0 -13 -4 -24 -10 -24 -5 0 -10 -9 -10 -19 0 -11 -7
-26 -15 -35 -8 -8 -15 -19 -15 -25 0 -6 -6 -25 -14 -43 -8 -18 -23 -52 -32
-75 -10 -24 -21 -43 -26 -43 -4 0 -8 -13 -8 -28 0 -15 -5 -33 -12 -40 -14 -14
-12 -107 4 -147 7 -16 23 -41 35 -55 13 -14 23 -32 23 -42 0 -9 9 -20 20 -23
35 -11 11 -25 -45 -25 -30 0 -57 -5 -60 -11 -4 -6 -25 -24 -47 -40 -53 -38
-92 -38 -149 1 -24 16 -50 30 -56 30 -19 0 -16 101 3 147 28 66 45 96 95 171
27 40 49 75 49 78 0 3 16 22 36 44 19 21 45 55 56 77 11 21 29 47 39 59 10 11
19 25 19 31 0 6 18 30 40 53 22 23 40 50 40 61 0 10 5 19 10 19 6 0 10 9 10
21 0 11 5 29 11 40 8 16 6 27 -14 53 l-25 32 -103 -4 c-57 -1 -108 -7 -113
-13 -6 -5 -51 -9 -101 -9 -86 1 -92 2 -122 30 -25 22 -33 38 -33 64 0 33 23
56 35 36 10 -16 91 -12 105 5 7 8 21 15 31 15 19 0 29 4 84 32 19 10 58 17
105 17 62 1 84 -3 127 -26z m-2062 -153 c4 -16 11 -32 16 -35 5 -4 9 -14 9
-23 0 -17 88 -112 104 -112 5 0 17 -7 27 -16 25 -23 49 -11 49 24 0 30 -24 87
-41 97 -14 9 -1 25 21 25 10 0 28 12 39 27 19 23 24 25 47 15 14 -7 32 -12 40
-12 9 0 22 -7 30 -15 9 -8 30 -15 49 -15 18 0 35 -5 37 -10 2 -6 17 -12 35
-14 17 -3 41 -14 53 -26 20 -20 20 -23 6 -39 -24 -27 -20 -37 24 -50 23 -7 40
-18 40 -26 0 -17 12 -19 26 -5 17 17 75 -7 110 -47 19 -21 39 -38 46 -38 7 0
23 -7 36 -15 17 -11 22 -24 22 -57 0 -32 4 -43 15 -43 12 0 15 -17 15 -90 0
-71 -3 -92 -15 -96 -8 -4 -15 -14 -15 -23 0 -9 -5 -22 -11 -28 -12 -12 4 -53
21 -53 5 0 11 -9 15 -20 4 -12 19 -22 41 -26 42 -8 48 -25 42 -128 -4 -83 -18
-106 -93 -154 -74 -46 -95 -78 -95 -143 0 -69 19 -92 50 -64 11 10 20 26 20
37 0 26 28 23 32 -4 2 -14 12 -24 28 -28 23 -5 25 -11 28 -62 l3 -57 42 -9
c42 -8 42 -8 51 25 7 25 14 32 27 28 12 -4 22 1 29 16 10 18 17 20 56 14 35
-5 45 -3 50 9 3 9 17 16 30 16 15 0 24 6 24 15 0 9 9 15 25 15 16 0 25 -6 25
-15 0 -8 7 -15 15 -15 8 0 15 4 15 10 0 5 7 18 16 29 13 15 25 18 50 14 27 -4
34 -2 34 11 0 12 10 16 39 16 74 0 91 -20 46 -54 -16 -12 -25 -29 -25 -47 0
-39 -18 -46 -32 -12 -10 25 -12 26 -16 8 -6 -28 -42 -65 -63 -65 -10 0 -21 -4
-24 -10 -3 -5 -17 -10 -31 -10 -20 0 -24 5 -24 30 0 17 -3 30 -6 30 -16 0 -44
-23 -44 -35 0 -8 -8 -24 -17 -35 -15 -17 -30 -20 -105 -20 l-87 0 -3 -50 c-4
-59 -22 -71 -26 -17 -3 41 -4 41 -30 28 -9 -5 -25 -12 -34 -15 -14 -4 -16 -12
-12 -34 7 -34 -9 -50 -32 -31 -8 6 -18 8 -22 4 -4 -4 -1 -10 6 -12 14 -5 16
-33 2 -33 -15 0 -12 -33 5 -56 8 -10 15 -34 15 -51 0 -40 15 -43 28 -5 9 26
10 25 25 -30 22 -74 22 -87 -3 -81 -29 8 -38 -39 -14 -75 10 -15 18 -38 18
-52 1 -20 6 -25 26 -23 14 1 19 -1 13 -3 -7 -3 -13 -13 -13 -22 0 -9 -7 -26
-15 -36 -23 -31 -22 -506 1 -541 21 -33 29 -32 48 9 13 28 16 70 16 220 0 180
1 186 20 186 19 0 20 -4 13 -57 -12 -91 -9 -242 6 -309 10 -45 10 -67 2 -82
-18 -34 6 -43 105 -37 48 3 93 10 99 15 9 7 60 14 93 11 7 -1 12 -15 12 -35 0
-37 10 -34 -165 -55 -38 -5 -74 -10 -80 -11 -24 -6 -35 1 -36 23 l-2 22 -4
-22 c-4 -18 -11 -23 -37 -23 -19 0 -39 -6 -45 -13 -14 -18 -80 -14 -92 4 -8
12 -10 12 -18 0 -5 -8 -18 -12 -29 -8 -12 2 -23 0 -25 -6 -2 -6 -11 -8 -21 -4
-14 6 -17 13 -11 35 9 35 12 37 28 23 11 -9 17 -8 27 4 6 8 19 14 28 13 10 -1
33 0 52 1 32 2 33 3 13 11 -13 5 -23 18 -23 29 0 11 -4 23 -10 26 -5 3 -10 19
-10 35 0 30 -14 47 -25 30 -17 -27 -252 -2 -290 31 -5 5 -17 9 -26 9 -9 0 -22
7 -29 15 -7 8 -21 15 -31 15 -11 0 -19 5 -19 10 0 6 -8 10 -18 10 -10 0 -27 7
-38 15 -10 8 -40 15 -65 15 -25 0 -67 7 -92 16 -49 17 -96 12 -67 -7 8 -5 27
-6 41 -3 18 3 28 0 32 -10 4 -10 19 -16 40 -16 18 0 42 -7 53 -15 10 -8 26
-15 35 -15 22 0 139 -60 139 -71 0 -5 6 -9 13 -9 14 -1 57 -35 57 -45 0 -12
-218 17 -247 33 -12 7 -32 12 -45 13 -13 0 -36 9 -53 20 -16 10 -37 22 -46 26
-33 16 -89 67 -89 81 0 9 7 22 15 31 8 9 26 29 39 46 l24 29 71 -12 c39 -6 89
-12 111 -12 21 0 42 -4 45 -10 3 -5 20 -10 36 -10 18 0 28 4 24 10 -3 6 -15
10 -26 10 -11 0 -27 7 -35 15 -9 8 -25 15 -38 15 -12 0 -26 4 -31 9 -6 6 -35
11 -65 13 -52 3 -55 4 -58 31 -2 16 3 43 11 60 8 18 17 41 19 51 1 10 15 28
29 39 24 17 30 18 54 6 16 -8 33 -23 39 -34 24 -42 74 -104 80 -98 3 3 6 17 6
30 0 14 5 23 11 21 15 -5 69 -105 69 -128 0 -25 12 -32 25 -13 14 19 42 12 52
-14 4 -9 15 -25 25 -35 16 -16 19 -17 24 -3 4 9 -1 24 -10 34 -9 10 -16 26
-16 37 0 10 -7 28 -15 38 -8 11 -15 28 -15 38 0 10 -4 18 -10 18 -5 0 -10 9
-10 20 0 12 -8 32 -17 47 -16 24 -16 26 0 38 9 7 17 20 17 30 0 19 -114 135
-133 135 -15 1 -77 56 -77 70 0 5 18 10 40 10 47 0 52 15 15 50 -17 16 -25 33
-23 50 3 21 9 25 42 28 21 2 43 -1 49 -7 16 -16 43 -13 57 4 10 12 10 19 2 27
-19 19 -14 26 18 33 34 7 39 20 13 28 -10 3 -34 14 -53 25 -19 10 -52 26 -72
35 -118 52 -127 61 -104 105 10 19 11 33 5 44 -6 11 -6 19 1 23 5 3 10 28 10
54 0 58 6 61 119 61 73 0 74 0 55 19 -11 10 -37 26 -57 36 -20 9 -37 21 -37
26 0 5 -12 14 -27 20 -26 10 -27 12 -8 19 11 4 26 5 33 3 6 -3 28 -2 48 2 l36
6 -23 25 c-12 13 -31 24 -41 24 -10 0 -18 5 -18 10 0 6 -6 10 -14 10 -33 0
-176 109 -176 135 0 17 -79 105 -95 105 -7 0 -26 7 -41 15 -16 8 -36 15 -45
15 -19 0 -81 59 -73 71 7 12 58 11 70 -1 14 -14 93 -18 94 -5 0 6 -9 11 -21
13 -15 3 -20 9 -16 23 5 19 -10 24 -87 31 -23 2 -35 12 -53 46 -34 61 -28 86
20 90 62 5 42 36 -31 45 -88 11 -60 37 40 37 37 0 70 5 73 10 3 6 28 10 55 10
27 0 52 -4 55 -10 3 -5 21 -10 38 -10 18 0 45 -7 61 -15 34 -18 36 -18 36 -5
0 6 -7 10 -15 10 -8 0 -15 4 -15 9 0 12 -50 37 -90 46 -16 4 -32 11 -35 16 -4
5 -17 9 -31 9 -14 0 -35 5 -47 12 -26 14 -101 27 -219 36 -75 6 -90 10 -115
34 -22 21 -32 25 -46 17 -10 -6 -52 -13 -93 -16 -41 -3 -74 -10 -74 -14 0 -5
10 -9 23 -9 13 0 32 -7 43 -15 10 -8 31 -15 46 -15 30 0 57 -33 37 -46 -6 -3
-16 -1 -22 5 -6 6 -20 11 -32 11 -12 0 -30 7 -41 15 -14 11 -36 13 -89 9 -51
-4 -75 -2 -88 8 -18 13 -16 17 24 57 24 24 54 47 66 52 13 5 23 15 23 23 0 28
59 76 94 76 18 0 41 7 52 15 10 8 29 15 41 15 12 0 23 3 25 8 2 4 21 15 43 26
22 10 47 22 55 27 8 5 22 12 30 16 8 3 26 15 39 25 32 24 38 23 46 -12z m3653
-127 c0 -21 -5 -47 -11 -58 -5 -10 -9 -48 -8 -82 2 -57 -1 -65 -25 -88 -15
-14 -22 -25 -15 -25 6 0 11 -9 11 -20 0 -12 -7 -20 -17 -20 -15 0 -14 -2 3
-15 17 -14 17 -16 3 -27 -11 -9 -14 -24 -11 -49 2 -24 -1 -41 -12 -52 -9 -8
-16 -29 -16 -46 0 -17 -8 -36 -17 -43 -10 -7 -18 -22 -18 -33 0 -13 -8 -21
-23 -23 -22 -3 -23 -2 -16 50 3 29 10 57 15 62 5 6 9 21 9 34 0 13 9 35 20 49
13 17 17 33 14 52 -4 21 -1 30 11 34 9 4 13 12 10 17 -4 6 -2 17 5 25 8 10 8
18 -1 32 -9 16 -8 27 4 54 15 32 23 74 32 164 2 22 4 41 4 43 1 1 12 2 26 2
22 0 24 -4 23 -37z m-4240 -301 c5 -32 38 -42 146 -42 59 0 98 -5 108 -12 24
-21 48 -61 48 -83 0 -19 -31 -55 -47 -55 -18 0 -114 -72 -170 -127 -59 -59
-66 -63 -108 -63 -43 0 -49 4 -111 66 l-65 66 -22 -20 c-12 -11 -32 -25 -44
-31 -22 -11 -22 -12 19 -52 45 -44 42 -59 -14 -59 -27 0 -28 -2 -28 -52 1 -29
7 -64 15 -78 8 -14 14 -39 15 -56 0 -17 3 -34 6 -37 10 -10 42 -106 37 -111
-9 -9 -68 31 -102 68 -47 50 -103 86 -138 86 -39 1 -97 31 -101 53 -4 19 17
68 42 100 8 10 27 17 46 17 35 0 70 23 70 47 0 14 26 42 56 59 11 6 20 24 22
43 2 23 8 31 23 31 11 0 22 7 25 15 4 8 12 15 20 15 8 0 14 5 14 10 0 6 11 10
24 10 22 0 25 5 28 43 2 34 7 42 21 40 23 -1 57 31 57 54 0 9 15 32 33 50 37
38 70 40 75 5z m-1393 -161 c0 -14 6 -26 13 -29 6 -2 12 -14 12 -26 0 -12 7
-31 15 -42 8 -10 15 -31 15 -47 0 -15 4 -35 9 -45 24 -43 41 -87 41 -102 0
-10 7 -20 15 -24 8 -3 15 -16 15 -30 0 -13 7 -26 15 -30 8 -3 15 -17 15 -31 0
-14 5 -25 11 -25 6 0 8 -9 4 -20 -4 -13 -1 -22 9 -26 9 -3 16 -14 16 -24 0
-10 7 -23 15 -30 9 -7 14 -19 11 -27 -4 -8 4 -17 19 -23 15 -6 25 -17 25 -30
0 -11 5 -20 10 -20 6 0 10 -7 10 -15 0 -8 5 -15 10 -15 6 0 10 -11 10 -25 0
-16 6 -25 15 -25 9 0 15 -9 15 -21 0 -12 7 -27 17 -34 9 -7 14 -19 10 -29 -12
-31 -36 -16 -62 39 -15 30 -33 55 -41 55 -8 0 -22 17 -32 38 -9 20 -23 42 -31
48 -8 6 -12 18 -8 27 3 9 0 18 -9 21 -8 3 -14 14 -14 25 0 10 -7 21 -15 25 -8
3 -15 15 -15 26 0 11 -7 23 -15 26 -8 4 -15 16 -15 29 0 13 -7 25 -15 29 -8 3
-15 14 -15 25 0 11 -5 23 -11 27 -6 3 -9 15 -6 25 3 10 1 22 -5 25 -5 3 -7 16
-4 29 4 15 1 25 -9 29 -8 3 -15 15 -15 26 0 11 -4 20 -10 20 -5 0 -10 9 -10
19 0 11 -7 26 -15 35 -8 8 -15 27 -15 43 0 16 -4 33 -9 39 -11 12 -21 80 -13
88 14 14 37 -1 37 -23z m5480 -141 c3 -5 3 -16 -2 -22 -4 -7 -6 -25 -4 -40 1
-16 -2 -28 -8 -28 -6 0 -11 -11 -11 -24 0 -14 -6 -31 -13 -38 -7 -7 -21 -32
-31 -55 -11 -24 -23 -43 -28 -43 -4 0 -8 -11 -8 -25 0 -16 -6 -25 -15 -25 -11
0 -15 -11 -15 -40 0 -22 -4 -40 -10 -40 -5 0 -10 -8 -10 -17 0 -19 -41 -63
-58 -63 -6 0 -14 9 -17 20 -7 23 2 60 16 60 5 0 9 7 9 14 0 8 11 27 25 42 14
15 25 36 25 46 0 11 9 22 19 25 13 3 18 10 14 20 -4 9 0 21 8 27 8 6 15 31 17
56 2 25 7 49 12 54 6 6 10 19 10 29 0 10 8 21 18 24 14 3 18 11 14 29 -3 19 0
24 16 24 12 0 24 -4 27 -10z m-4594 -326 c6 -8 26 -14 44 -14 33 0 72 -31 61
-49 -4 -5 -29 -7 -61 -4 -47 5 -55 3 -55 -11 0 -9 6 -16 13 -16 21 0 137 -60
137 -71 0 -5 -27 -9 -60 -9 -54 0 -62 3 -71 24 -10 22 -13 23 -38 10 -14 -8
-38 -14 -54 -14 -15 0 -36 -5 -46 -12 -10 -6 -26 -8 -36 -4 -17 6 -16 8 5 28
14 13 38 22 61 23 56 2 61 4 54 15 -3 6 -17 10 -31 10 -19 0 -24 5 -24 24 0
13 7 27 16 30 15 6 15 8 2 24 -9 9 -14 22 -12 27 6 15 81 6 95 -11z m2761
-110 c16 -16 18 -16 24 0 3 9 13 16 21 16 19 0 109 -70 117 -90 3 -8 9 -21 12
-28 13 -29 -41 -6 -61 25 -20 32 -43 48 -54 38 -3 -3 0 -14 6 -25 10 -15 9
-19 -3 -24 -15 -6 -63 22 -64 37 0 11 -50 8 -50 -3 0 -5 5 -10 10 -10 6 0 10
-7 10 -15 0 -21 -7 -19 -33 9 -12 13 -31 25 -42 27 -11 3 -21 13 -23 23 -4 16
0 18 31 12 26 -5 36 -3 41 9 7 20 35 19 58 -1z m1489 -71 c5 -37 3 -43 -13
-43 -12 0 -18 -7 -18 -22 0 -29 -62 -98 -88 -98 -10 0 -26 6 -37 13 -17 13
-17 15 5 45 26 35 36 39 43 20 3 -7 6 -3 6 9 1 12 -3 25 -9 28 -14 8 -13 42 1
51 7 4 16 -1 21 -10 13 -23 28 -10 28 25 0 27 3 30 28 27 24 -3 28 -8 33 -45z
m-3980 -74 c21 -17 39 -39 39 -50 0 -10 4 -19 10 -19 5 0 13 -12 16 -27 9 -37
23 -53 45 -53 24 0 79 -54 79 -77 0 -19 32 -53 50 -53 10 0 14 -13 11 -42 -1
-10 4 -18 13 -18 9 0 16 -4 16 -10 0 -5 7 -10 16 -10 10 0 14 -7 12 -22 -3
-17 11 -37 49 -75 54 -54 69 -97 38 -109 -8 -4 -15 -11 -15 -16 0 -6 -10 -21
-22 -34 -22 -22 -30 -24 -133 -24 -120 0 -153 12 -180 63 -7 15 -21 41 -31 59
-9 18 -23 45 -30 60 -8 14 -14 57 -14 94 0 53 -3 65 -12 56 -24 -24 -72 -14
-108 23 -29 30 -34 43 -37 89 -1 38 2 58 12 66 8 7 15 24 15 39 1 32 23 60 75
94 22 14 42 26 44 26 2 1 21 -13 42 -30z m4054 0 c10 -15 -19 -69 -57 -110
-18 -19 -42 -51 -52 -72 -19 -37 -25 -41 -58 -38 -12 2 -16 -3 -13 -12 13 -32
-53 -127 -87 -127 -11 0 -18 -8 -18 -20 0 -13 -10 -24 -26 -30 -14 -6 -28 -19
-31 -30 -3 -11 -9 -20 -13 -20 -4 0 -13 -18 -20 -40 -7 -22 -19 -40 -26 -40
-7 0 -17 -6 -21 -12 -19 -30 -42 -41 -58 -28 -13 11 -15 8 -15 -14 0 -14 -5
-26 -11 -26 -6 0 -17 -7 -26 -16 -9 -8 -22 -13 -29 -10 -10 4 -14 -3 -14 -24
0 -20 -5 -30 -15 -30 -8 0 -15 -4 -15 -10 0 -5 -6 -10 -14 -10 -7 0 -16 -9
-19 -21 -4 -15 -11 -19 -25 -15 -13 5 -22 -1 -32 -19 -8 -14 -24 -28 -37 -31
-13 -4 -23 -10 -23 -15 0 -5 -11 -9 -25 -9 -15 0 -28 -7 -32 -17 -7 -22 -53
-62 -70 -63 -7 0 -13 -4 -13 -9 0 -5 -10 -13 -22 -17 -13 -4 -25 -9 -28 -13
-9 -11 -68 -41 -80 -41 -7 0 -26 -13 -42 -30 -15 -17 -34 -30 -42 -30 -7 0
-19 -7 -27 -16 -9 -11 -22 -14 -46 -9 -20 4 -33 2 -33 -5 0 -5 -11 -10 -25
-10 -16 0 -25 -6 -25 -15 0 -9 -9 -15 -25 -15 -16 0 -25 -6 -25 -15 0 -8 -5
-15 -11 -15 -6 0 -17 -7 -25 -15 -9 -8 -29 -15 -45 -15 -16 0 -29 -5 -29 -11
0 -7 -10 -9 -26 -6 -15 2 -31 -2 -40 -11 -14 -13 -17 -13 -25 -1 -7 11 -9 11
-9 -3 0 -12 -8 -18 -24 -18 -14 0 -27 -4 -30 -9 -4 -5 -24 -12 -46 -16 -22 -4
-42 -11 -46 -16 -3 -5 -25 -9 -49 -9 -24 0 -45 -4 -47 -9 -1 -5 -24 -12 -50
-16 -46 -7 -48 -6 -48 18 0 25 22 52 33 40 4 -3 14 0 23 8 9 7 29 12 45 11 16
-2 29 1 29 6 0 6 23 15 50 21 28 6 64 18 79 25 20 11 31 12 39 4 8 -8 15 -6
27 6 9 9 23 16 31 16 14 0 22 3 82 33 19 9 47 17 63 17 16 0 29 4 29 10 0 5
11 12 25 16 14 3 25 10 25 15 0 5 13 9 29 9 16 0 31 6 35 15 3 8 12 15 21 15
8 0 15 7 15 15 0 10 10 15 30 15 17 0 30 5 30 10 0 6 13 10 29 10 16 0 31 6
35 15 3 8 14 15 25 15 10 0 21 7 25 15 3 8 13 15 21 15 19 0 45 23 45 39 0 6
7 11 15 11 8 0 14 5 12 12 -1 6 7 14 18 16 11 2 30 13 41 23 12 11 25 19 30
18 13 -3 46 12 62 28 7 7 20 13 28 13 8 0 14 9 14 19 0 11 9 22 19 26 11 3 26
17 35 30 9 14 21 25 27 25 5 0 20 11 33 25 13 14 33 25 45 25 16 0 21 6 21 25
0 17 8 29 25 37 14 6 32 22 40 35 9 12 22 23 30 23 8 0 19 9 25 20 6 11 19 20
29 20 12 0 18 7 17 17 0 10 9 22 21 28 12 5 24 20 28 32 3 13 10 23 15 23 6 0
10 7 10 15 0 8 5 15 10 15 6 0 10 7 10 15 0 8 7 15 15 15 8 0 15 4 15 8 0 5 8
19 18 30 9 12 25 33 35 47 10 14 26 25 37 25 13 0 17 5 13 20 -3 12 1 22 11
26 9 3 16 14 16 24 0 10 7 23 15 30 8 7 15 17 15 22 0 5 8 20 18 33 18 25 65
34 77 14z m-4785 -124 c0 -14 5 -25 11 -25 16 0 37 -25 45 -54 3 -14 10 -26
15 -26 5 0 9 -11 9 -25 0 -20 5 -25 25 -25 14 0 25 -6 26 -12 0 -7 25 -33 54
-58 29 -25 54 -53 54 -63 1 -18 52 -77 67 -77 7 0 78 -56 120 -95 12 -11 23
-29 25 -40 3 -11 12 -21 22 -23 10 -2 32 -17 49 -33 18 -16 40 -29 50 -29 10
0 24 -10 33 -23 8 -13 33 -33 54 -45 22 -13 51 -36 65 -52 13 -17 31 -30 39
-30 8 0 20 -7 27 -15 7 -8 18 -15 25 -15 22 0 100 -46 110 -66 6 -12 18 -18
33 -16 19 3 22 -1 22 -32 0 -24 -5 -36 -14 -36 -8 0 -21 -3 -29 -6 -11 -4 -13
1 -10 19 4 22 2 24 -21 20 -15 -3 -26 -1 -26 6 0 6 -9 11 -20 11 -11 0 -23 7
-26 15 -4 10 -13 13 -25 10 -14 -5 -17 -2 -13 9 3 9 1 16 -5 16 -6 0 -11 7
-11 15 0 10 -10 15 -30 15 -16 0 -30 5 -30 10 0 6 -9 10 -20 10 -11 0 -24 8
-27 18 -11 28 -30 42 -57 42 -14 0 -26 5 -26 10 0 6 -7 10 -15 10 -8 0 -15 7
-15 15 0 8 -4 15 -10 15 -5 0 -10 17 -10 37 0 35 -1 36 -15 17 -14 -19 -15
-19 -33 5 -15 19 -25 22 -46 17 -23 -6 -27 -4 -24 11 4 17 -45 73 -64 73 -4 0
-8 6 -8 14 0 8 -9 18 -20 21 -20 6 -28 35 -10 35 6 0 10 4 10 9 0 4 -11 6 -25
3 -17 -3 -27 1 -31 12 -3 9 -12 16 -20 16 -7 0 -16 11 -20 25 -3 14 -12 25
-20 25 -15 0 -74 54 -74 69 0 5 -7 11 -15 15 -8 3 -15 15 -15 26 0 11 -7 20
-15 20 -8 0 -28 20 -44 44 -17 24 -44 57 -59 73 -16 16 -32 39 -36 51 -4 12
-12 22 -17 22 -5 0 -9 9 -9 20 0 16 7 20 35 20 31 0 35 -3 35 -25z m1087 -911
c4 -12 14 -14 34 -10 16 3 29 1 29 -4 0 -6 7 -10 15 -10 8 0 22 -8 32 -19 10
-10 37 -26 61 -36 23 -11 42 -24 42 -29 0 -6 16 -11 35 -12 19 0 43 -8 53 -17
10 -9 29 -17 41 -17 16 0 22 -5 19 -17 -5 -25 -88 -32 -88 -8 0 13 -6 15 -30
10 -26 -6 -30 -4 -30 14 0 14 -5 19 -15 15 -8 -3 -20 -2 -27 2 -7 5 -24 7 -38
6 -17 -2 -36 6 -54 23 -23 21 -36 26 -59 21 -23 -5 -28 -3 -23 9 4 11 -2 15
-22 15 -26 0 -27 2 -24 40 3 32 8 40 23 40 11 0 22 -7 26 -16z"/>
<path d="M2022 5418 c-5 -7 -17 -28 -26 -46 -15 -29 -15 -36 -4 -50 7 -10 22
-34 32 -55 11 -22 29 -40 43 -43 13 -4 23 -10 23 -15 0 -17 25 -9 58 19 26 22
34 36 38 78 6 47 4 52 -29 87 -30 32 -40 37 -79 37 -25 0 -50 -6 -56 -12z"/>
<path d="M4709 4963 c-42 -26 -59 -62 -52 -113 8 -56 22 -70 71 -70 49 0 89
20 113 57 25 37 25 104 1 126 -24 22 -99 22 -133 0z"/>
<path d="M6155 2250 c-10 -28 -15 -1024 -6 -1195 15 -247 21 -44 19 570 -2
424 -6 641 -13 625z"/>
<path d="M2 633 c-2 -501 1 -633 11 -633 9 0 11 22 9 87 -2 49 -7 333 -11 633
l-8 545 -1 -632z"/>
</g>
</svg>
